<svg xmlns="http://www.w3.org/2000/svg" viewBox="0 0 854 854">
  <path fill="currentColor" fill-rule="evenodd" d="M485 210.09c-31.801.565-44.54 1.179-70 3.378-79.969 6.904-144.208 21.49-184.897 41.98-18.365 9.248-36.434 24.946-42.488 36.912-5.34 10.554-5.59 12.987-5.603 54.421-.01 33.242-.211 38.358-1.525 38.862-2.77 1.063-4.232-1.607-5.98-10.916-2.533-13.494-8.072-32.801-11.48-40.015-6.108-12.926-13.791-18.458-30.949-22.282-9.364-2.086-9.512-2.165-10.379-5.523-2.13-8.251-4.519-8.883-37.373-9.893-34.446-1.059-39.086-.123-44.164 8.912-1.793 3.19-3.913 4.884-10.219 8.165-15.478 8.052-18.665 15.875-22.17 54.409-1.638 18.011-1.6 72.774.062 91 2.301 25.217 6.602 46.521 11.23 55.616 4.674 9.189 12.977 14.543 25.935 16.726 10.701 1.802 50.037 3.417 70.946 2.911 16.337-.394 20.635-.822 26.126-2.598 11.674-3.776 22.847-12.548 28.857-22.655 3.016-5.073 4.792-6.5 8.09-6.5 2.331 0 3.179 1.093 7.336 9.467C208.029 556.128 269.84 588.12 365 604.929c93.566 16.528 199.062 17.068 291.5 1.491 85.948-14.482 142.831-38.141 171.036-71.134 7.522-8.8 15.506-24.09 17.642-33.786 1.996-9.058 1.421-183.754-.636-193.623-8.238-39.509-65.686-68.787-168.483-85.869-39.629-6.585-82.373-10.715-119.559-11.554-12.1-.273-24.925-.612-28.5-.754s-22.925.033-43 .39m-42.569 18.474c-53.144 3.13-102.325 10.05-141.431 19.901-48.634 12.25-80.305 29.359-89.737 48.476-3.853 7.81-3.84 17.419.034 24.964 9.883 19.243 36.341 35.839 80.203 50.308 72.821 24.02 175.55 34.614 278.5 28.72 94.482-5.41 180.673-25.873 220.359-52.318 9.846-6.562 21.391-18.296 24.708-25.115 3.52-7.234 3.437-17.858-.199-25.612-8.205-17.5-36.698-33.885-81.368-46.792-16.364-4.728-53.778-12.353-73.841-15.048-25.164-3.38-57.993-6.325-89.659-8.043-25.157-1.365-100.511-1.035-127.569.559m28.069 12.452c-57.275 2.602-113.612 9.719-150.5 19.013-28.899 7.28-53.863 18.169-64.525 28.144-8.666 8.106-11.94 14.762-11.212 22.793.983 10.835 8.209 20.543 22.463 30.178 51.386 34.734 205.363 54.255 329.774 41.809 103.551-10.36 171.225-32.78 183.828-60.902 3.013-6.723 2.785-16.078-.55-22.571-4.553-8.864-15.441-17.618-31.1-25.004-34.774-16.403-93.803-28.09-164.178-32.503-22.476-1.41-91.311-1.988-114-.957m5.5 14.645c-39.169 1.376-92.271 6.589-122 11.976-27.748 5.028-55.347 13.017-70.438 20.39-15.983 7.808-23.98 17.916-19.271 24.357 1.212 1.657 1.928 1.513 11.561-2.325 20.149-8.027 27.065-12.852 28.629-19.973.741-3.372 4.746-7.086 7.643-7.086 1.02 0 4.287 2.202 7.259 4.894 4.102 3.715 6.644 5.16 10.545 5.997 11.992 2.572 28.204-5.612 29.705-14.996.712-4.455 1.842-5.64 6.207-6.513 2.796-.559 3.626-.124 7.405 3.885 6.486 6.883 9.012 8.12 16.628 8.146 10.142.034 16.969-4.313 20.666-13.161 2.684-6.423 9.052-6.728 15.057-.722 5.533 5.533 10.92 7.828 18.404 7.844 6.663.014 7.674-.352 21.399-7.738 7.771-4.181 14.795-3.274 25.061 3.236 7.014 4.449 11.312 4.233 22.311-1.122 7.9-3.846 9.441-4.25 16.229-4.25 6.981 0 8.14.328 16.758 4.75 7.061 3.623 10.341 4.75 13.826 4.75 4.742 0 4.843-.072 12.388-8.75 3.719-4.277 8.388-2.53 12.22 4.573 2.584 4.791 7.283 7.169 14.176 7.173 5.476.004 6.109-.247 9.5-3.761 1.997-2.07 4.389-5.204 5.315-6.964 3.298-6.271 10.985-5.53 14.317 1.38 2.713 5.627 5.257 8.29 10 10.468 8.664 3.979 18.007 1.645 24.306-6.07 2.647-3.241 3.963-4.049 6.595-4.049 4.175 0 6.311 2.347 7.201 7.912 1.281 8.014 8.042 13.176 19.195 14.655 6.202.823 13.263-1.336 18.203-5.566 5.916-5.065 14-3.404 14 2.877 0 3.296 2.428 7.283 6.256 10.275C737.268 305.289 756.31 315 758.447 315c.815 0 1.948-.87 2.518-1.934 5.632-10.524-10.86-23.962-42.272-34.443C683.856 267 640.542 260.242 577 256.517c-22.339-1.31-75.305-1.759-101-.856m-11.534 31.88c-13.805 7.467-24.964 7.781-38.55 1.083l-6.584-3.246-4.416 3.872c-2.429 2.129-6.666 5.082-9.416 6.561-4.561 2.453-5.966 2.689-16 2.689-10.155 0-11.375-.211-15.884-2.754l-4.883-2.755-4.437 4.09c-11.385 10.494-31.325 14.268-44.352 8.394l-3.64-1.642-5.277 5.141c-3.753 3.655-8.523 6.713-16.514 10.583-6.179 2.994-11.721 5.443-12.315 5.443-7.038 0 9.941 9.003 29.802 15.803 39.317 13.46 96.298 22.681 162.5 26.296 26.064 1.424 82.472.603 106.5-1.55 67.775-6.073 124.776-18.105 156.75-33.088 8.301-3.89 11.482-6.461 7.993-6.461-.691 0-5.803-2.23-11.36-4.956-7.927-3.889-11.211-6.17-15.252-10.591l-5.15-5.635-4.707 1.604c-2.589.883-7.649 1.878-11.245 2.212-11.818 1.098-25.536-4.188-31.642-12.193l-2.5-3.278-5.51 2.522c-4.392 2.011-7.191 2.541-13.795 2.613-7.186.078-9.016-.279-13.794-2.697-3.03-1.533-6.722-3.912-8.206-5.288l-2.697-2.5-7.079 3.719c-11.578 6.085-25.683 5.65-33.628-1.036l-2.956-2.487-5.861 2.717c-9.555 4.43-15.673 3.947-27.935-2.208-12.493-6.271-15.134-6.373-25.926-1-7.356 3.662-8.645 3.98-16.016 3.951-7.512-.029-8.498-.296-15.703-4.25-4.228-2.32-8.72-4.175-9.984-4.121s-5.912 2.053-10.331 4.443M421.5 301.412c-8.503 3.779-11.483 14.86-6.175 22.961 3.706 5.656 14.714 7.229 20.477 2.925 6.886-5.141 8.668-11.631 5.174-18.847-3.496-7.222-12.083-10.325-19.476-7.039m108.03 3.305c-3.122 1.748-6.304 4.695-8.554 7.923l-3.583 5.14-5.447-2.35c-6.402-2.762-16.468-3.216-22.684-1.022-2.195.774-7.74 3.586-12.324 6.25-7.966 4.629-8.678 4.846-16.166 4.923-9.181.095-10.998 1.156-8.757 5.113 2.495 4.408 8.253 6.677 16.901 6.66 6.96-.014 8.283-.372 16.084-4.355 7.107-3.629 9.483-4.353 14.5-4.42 6.153-.081 5.905-.183 18.095 7.421 3.898 2.431 7.295-.159 10.205-7.781 1.313-3.439 3.779-7.645 5.48-9.345 2.744-2.745 3.584-3.037 7.468-2.599 2.467.278 5.331 1.387 6.564 2.543 3.129 2.93 7.057 4.186 13.003 4.156 4.179-.02 6.243-.699 10.639-3.5 4.622-2.944 6.342-3.474 11.281-3.474 6.342 0 7.787-1.221 5.812-4.912-2.496-4.664-14.021-6.896-18.698-3.62-1.152.807-3.92 1.76-6.15 2.116-3.541.566-4.854.163-10.366-3.186-8.614-5.232-16.009-5.766-23.303-1.681m78.769 3.243c-6.002 3.659-8.513 12.956-5.268 19.503 2.147 4.33 7.452 7.537 12.469 7.537 14.042 0 19.982-19.594 8.156-26.903-4.353-2.691-11.072-2.751-15.357-.137m-246.404.455c-1.983.759-5.808 2.942-8.5 4.851-7.494 5.314-15.677 8.045-23.494 7.838-7.73-.204-9.867 1.248-8.318 5.653 1.59 4.52 6.783 6.716 15.916 6.73 7.193.012 8.582-.315 13.751-3.237 17.961-10.152 16.364-9.546 23.785-9.015 7.285.521 8.965-.181 8.965-3.746 0-6.706-13.65-12.309-22.105-9.074m60.545 3.036c-2.69 4.106-.109 9.549 4.527 9.549 3.518 0 6.033-2.832 6.033-6.794 0-5.393-7.542-7.361-10.56-2.755m-364.94-.567c-1.1.489-3.019 2.281-4.263 3.981l-2.264 3.09 2.264.496c1.244.272 12.546.62 25.113.772l22.85.277 1.524-3.793c.838-2.086 1.237-4.079.886-4.43-1.014-1.014-43.894-1.38-46.11-.393m588.507 4.648c-5.064 2.285-8.007 5.416-8.007 8.52 0 3.956 2.212 5.418 6.128 4.053 5.389-1.879 9.184-1.289 15.26 2.37 10.856 6.537 17.21 7.001 29.112 2.126 7.415-3.037 8-3.489 8-6.184 0-2.492-.554-3.09-3.871-4.176-2.806-.92-4.868-.991-7.5-.26-6.228 1.73-9.545 1.151-17.54-3.061-9.063-4.775-16.07-5.875-21.582-3.388m-34.352 1.297c-2.171 2.399-2.1 5.458.174 7.516 3.599 3.257 9.171 1.297 9.171-3.225 0-5.285-5.966-8.025-9.345-4.291M116.501 328.41c-4.371 5.73-7.462 6.591-23.652 6.585-24.794-.009-51.773-1.837-54.968-3.724-2.639-1.559-2.92-1.546-4.884.232-3.425 3.099-2.201 5.763 3.519 7.663 8.364 2.777 18.85 3.842 43.984 4.467 35.301.878 54.418-1.527 58.215-7.321 1.919-2.928.713-4.611-5.248-7.327-3.582-1.632-11.337-3.879-13.666-3.961-.385-.013-1.87 1.51-3.3 3.386m264.798-.45c-11.469 6.992-6.268 23.04 7.467 23.04 12.195 0 16.724-17.721 6.044-23.647-3.439-1.908-9.86-1.62-13.511.607M558 326.668c-5.974 2.457-11 9.46-11 15.324 0 10.21 9.831 18.189 19.675 15.969 13.703-3.091 18.083-21.301 7.017-29.18-3.081-2.195-12.433-3.453-15.692-2.113m-173.429 7.903c-1.865 1.865-2.054 5.546-.371 7.229 2.828 2.828 8.8.249 8.8-3.8 0-1.021-.707-2.564-1.571-3.429-.865-.864-2.408-1.571-3.429-1.571s-2.564.707-3.429 1.571m173.486 2.372c-2.269 2.269-2.619 5.139-.996 8.171 2.632 4.918 10.763 4.14 12.992-1.243 1.085-2.617.989-3.34-.755-5.685-2.65-3.564-8.295-4.189-11.241-1.243M29.453 350.424c-3.239 9.934-5.9 69.183-3.203 71.323 4.185 3.322 75.978 5.703 97.911 3.247 14.235-1.593 13.188-.604 12.542-11.852-1.068-18.576-6.037-48.99-9.311-56.987-1.342-3.279-1.464-3.334-6.131-2.744-17.856 2.254-67.133.911-82.609-2.253-6.027-1.233-8.96-1.466-9.199-.734m464.118.147c-2.218 2.219-1.95 5.05.652 6.872 1.782 1.249 5.332 1.557 17.934 1.557 8.642 0 16.855-.434 18.25-.965 1.502-.571 2.813-2.062 3.213-3.655 1.208-4.816-.966-5.38-20.74-5.38-14.791 0-17.998.261-19.309 1.571m-349.051 1.396c-.328.532 1.014 8.46 2.983 17.618s4.206 20.759 4.97 25.782c3.019 19.856 2.469 18.528 6.846 16.534 2.159-.984 2.365-1.588 1.958-5.75-1.351-13.806-5.143-32.994-9.466-47.901-1.822-6.284-2.408-7.25-4.398-7.25-1.262 0-2.564.435-2.893.967m57.48 48.95c0 46.458-.437 43.69 6.381 40.438 3.067-1.462 3.632-2.375 5.107-8.25.912-3.633 2.412-7.439 3.333-8.457 3.854-4.264 10.159-5.747 15.614-3.673 3.646 1.386 3.397-.989-.512-4.898-3.611-3.611-5.142-3.769-10.423-1.077-2.158 1.1-4.053 2-4.211 2S217 406.467 217 393.594v-23.406l-4.75-3.543a616 616 0 0 1-7.5-5.677l-2.75-2.135zm618-37.626c-3.025 2.358-7.187 5.319-9.25 6.58l-3.75 2.292v138.243l4.128-3.953c2.271-2.174 5.844-6.569 7.941-9.766 7.222-11.012 6.976-8.203 6.689-76.467l-.258-61.217zm-586 31.076v15.582l3.25 1.642c1.787.904 4.271 2.576 5.518 3.717 2.874 2.628 5.232 10.482 5.232 17.423 0 8.175 3.598 13.532 11.232 16.721 7.538 3.15 13.266 1.51 17.724-5.076 5.271-7.786 15.49-8.387 22.224-1.307 3.382 3.555 3.753 3.716 4.336 1.882.915-2.884-2.457-8.135-6.55-10.199-3.868-1.952-10.086-2.293-13.032-.717-1.88 1.006-1.934.511-1.947-17.75l-.012-18.785-13.651-4.827c-7.507-2.655-17.739-6.621-22.737-8.812a9906 9906 0 0 0-10.337-4.53c-.97-.423-1.25 2.947-1.25 15.036m548.852-9.853c-5.194 2.705-21.561 9.301-29.602 11.93l-5.25 1.717V438.5l-3.603 2.875c-4.762 3.799-6.397 8.058-6.397 16.659 0 7.924 1.119 10.966 4.035 10.966 1.794 0 1.965-.717 1.969-8.25.004-8.965 1.756-13.481 6.141-15.827 3.339-1.788 11.849-1.566 15.588.406 5.948 3.136 6.268 4.817 6.26 32.871-.006 23.324-.157 25.529-1.939 28.233-2.647 4.015-5.687 5.49-11.403 5.532-5.59.04-11.196-2.283-12.898-5.345-.647-1.166-1.419-4.37-1.715-7.12-.443-4.119-.884-5-2.501-5-2.799 0-4.191 5.374-2.689 10.387.791 2.64 2.393 4.701 5.127 6.596l3.977 2.755.274 15.821.274 15.82 6-2.695c10.471-4.703 22.276-11.404 27.979-15.88l5.521-4.333v-70.486c0-38.767-.112-70.464-.25-70.438s-2.342 1.136-4.898 2.467M178.25 399.031c-1.264.508-2.25 1.766-2.25 2.872 0 3.295 1.862 7.097 3.475 7.097 1.182 0 1.525-1.238 1.525-5.5 0-3.025-.113-5.471-.25-5.437-.137.035-1.262.471-2.5.968M300 415.875v12.875l2.75.586c8.032 1.712 14.135 10.363 15.011 21.278.459 5.72.181 7.062-2.669 12.85-3.241 6.585-6.235 9.484-11.592 11.227l-3 .975-.261 39.027-.262 39.027 4.262 1.55c11.134 4.053 51.526 14.667 56.017 14.721.416.005.641-34.488.5-76.65l-.256-76.659-17.5-3.721c-9.625-2.046-23.067-5.124-29.871-6.841-6.803-1.716-12.541-3.12-12.75-3.12s-.379 5.794-.379 12.875m419-9.249c-4.675 1.311-17.5 4.193-28.5 6.404s-21.013 4.243-22.25 4.515l-2.25.493v152l2.25-.504c1.237-.278 7.425-1.657 13.75-3.066 13.925-3.101 23.202-5.544 36.75-9.676l10.25-3.127v-74.833c0-41.157-.337-74.777-.75-74.711s-4.575 1.194-9.25 2.505m-340 90.24v76.867l13.75 2.183c13.346 2.118 54.459 7.046 59 7.071L454 583V427h-4.501c-5.811 0-42.125-3.685-54.742-5.556-5.359-.794-11.097-1.444-12.75-1.444H379zm252.5-74.321c-4.95.711-17.1 2.009-27 2.883s-20.587 1.854-23.75 2.179l-5.75.589v76.902c0 72.385.102 76.902 1.739 76.902 4.168 0 47.792-5.302 58.11-7.063 6.243-1.065 11.755-1.937 12.25-1.937 1.009 0 1.257-142.212.259-148.25-.72-4.358-.808-4.37-15.858-2.205m-474.362 2.349c-1.089.689-1.189 2.543-.5 9.224.722 7.002 1.168 8.419 2.742 8.72 2.864.547 3.588-1.581 3.605-10.588.014-7.898-.081-8.249-2.235-8.235-1.238.009-2.863.404-3.612.879M473 506.087v77.658l20.045.732c18.837.688 47.547.141 58.211-1.109l4.756-.557-.256-77.063-.256-77.063-41.25-.128-41.25-.127zm-446.311-70.34c-.576 1.002 1.91 23.294 3.835 34.391 2.65 15.275 7.718 29.066 12.154 33.074 3.27 2.954 14.112 4.75 35.322 5.851 18.528.962 40.259.657 47.124-.662 3.141-.604 6.32-3.789 7.884-7.901 1.933-5.082 3.89-24.397 4.618-45.582l.695-20.215-2.831.71c-2.181.547-23.259 2.334-30.1 2.552-.611.019-1.36 2.459-1.666 5.422-.654 6.337-2.873 11.087-5.948 12.733-3.009 1.61-37.208 1.263-40.693-.413-3.331-1.603-7.083-7.318-7.083-10.79 0-1.533-.423-3.9-.941-5.261-.855-2.248-1.653-2.536-8.75-3.151-4.295-.372-9.019-.865-10.498-1.094s-2.883-.079-3.122.336m34.683 1.725c-1.074 2.799.157 5.013 3.14 5.652 5.564 1.191 24.01.954 25.288-.324 1.57-1.57 1.54-4.758-.05-5.248-.687-.211-7.232-.634-14.543-.938-10.892-.453-13.391-.298-13.835.858m168.05.653c-1.411 2.285-.528 11.747 1.461 15.646 2.376 4.657 9.468 11.347 15.044 14.192 2.268 1.157 7.257 2.811 11.084 3.676 5.759 1.3 8.104 1.372 13.591.417 12.766-2.223 21.398-8.525 21.398-15.622 0-5.08-2.352-5.468-6.821-1.127-16.13 15.673-41.176 9.062-49.029-12.942-1.767-4.95-5.021-7.001-6.728-4.24m-25.254 12.94c-8.725 3.873-16.032 5.116-28.131 4.784-6.345-.173-12.045.007-12.666.402-1.547.983-2.297 4.251-1.333 5.81 1.07 1.732 20.989 2.528 27.63 1.104C201.873 460.547 212 454.99 212 450.911c0-2.406-2.162-2.364-7.832.154m553.082 5.602c-.944.377-1.25 5.592-1.25 21.294 0 17.518.243 20.996 1.542 22.074 3.074 2.551 3.503-.375 3.228-22.023-.264-20.899-.535-22.539-3.52-21.345M209.5 471.984l-7 2.795.238 5.36c.291 6.54 4.559 15.721 10.22 21.981l3.96 4.38.041-18.75c.023-10.312-.072-18.707-.209-18.655s-3.4 1.353-7.25 2.889m-53.329 14.232c-.59 3.969-.899 7.39-.687 7.601.743.744 4.398-3.377 5.451-6.146 2.054-5.403.962-8.671-2.896-8.671-.439 0-1.279 3.247-1.868 7.216M234 499.378c0 23.639-.979 21.138 11.5 29.378 5.883 3.885 34.17 18.244 35.94 18.244.308 0 .56-13.95.56-31s-.168-31-.374-31-2.288.675-4.626 1.5c-8.756 3.089-24.278 1.389-35-3.834-3.575-1.741-6.838-3.316-7.25-3.499s-.75 8.911-.75 20.211"/>
</svg>
