<svg xmlns="http://www.w3.org/2000/svg" viewBox="0 0 737 767"><path fill="currentColor" fill-rule="evenodd" d="M329.5 6.62c-89.71 4.141-163 15.579-218.5 34.102C71.183 54.01 45.802 67.801 28.5 85.548c-9.134 9.369-13.578 16.223-17.12 26.409l-2.478 7.127.299 43.208L9.5 205.5l3.082 6.5c1.696 3.575 5.408 9.293 8.25 12.706L26 230.912v150.889c0 149.972-.012 150.9-2.014 152.712-3.693 3.342-9.265 12.709-11.136 18.722-1.64 5.268-1.848 9.596-1.835 38.104.011 24.982.348 33.574 1.507 38.493C21.52 668 63.169 701.001 135.197 727.036c14.537 5.255 46.2 14.234 64.91 18.409 110.754 24.713 245.688 23.374 354.778-3.518 89.16-21.98 148.951-56.089 168.534-96.145 6.455-13.203 6.709-15.432 6.378-55.989L729.5 553.5l-2.628-5.5c-1.446-3.025-4.708-8.142-7.25-11.37L715 530.759V231.893l5.48-6.783c6.584-8.147 10.014-15.343 11.536-24.198.756-4.394 1.017-19.383.785-45-.333-36.745-.444-38.669-2.563-44.344-3.588-9.61-8.201-16.465-17.238-25.617C673.461 45.91 571.89 16.915 441.5 8.446c-21.874-1.421-94.961-2.612-112-1.826m-3.412 27.373C265.783 36.565 216.462 42.586 170 53.05c-56.588 12.745-94.108 28.753-112.444 47.977-7.875 8.256-10.889 15.165-10.38 23.8.518 8.785 3.582 14.781 11.824 23.141 31.25 31.698 117.515 58.974 222.87 70.47 14.889 1.625 21.632 2.746 22.234 3.697 1.142 1.801 1.12 24.963-.024 26.77-1.098 1.735-16.165 1.057-44.08-1.981C160.883 236.135 79.434 210.957 46.742 181L40 174.823v9.121c0 11.371 1.229 14.445 8.804 22.02C78.597 235.757 160.979 261.091 260 270.91c41.311 4.097 52.56 4.579 107 4.585 54.759.005 72.686-.734 111-4.578 103.494-10.382 187.932-36.479 216.357-66.867 5.995-6.41 6.643-8.286 6.643-19.242v-9.063l-4.25 3.907C664.469 209.328 586.589 234.336 492 245.4c-28.507 3.334-49.27 5-52.431 4.207l-2.569-.645V235.54c0-7.829.415-13.678.996-14.037.547-.339 8.672-1.493 18.055-2.566 61.538-7.035 107.467-16.441 150.949-30.911 56.114-18.675 85.944-40.004 87.771-62.757.446-5.559.15-6.986-2.605-12.583-11.049-22.445-50.43-42.287-114.394-57.637C535.863 44.991 495.134 39.158 441 35.461c-26.938-1.84-87.923-2.619-114.912-1.468M347 54.62c-25.095 1.503-58.425 5.96-77.576 10.373-45.867 10.569-74.066 26.87-80.444 46.504-5.491 16.904 5.611 34.855 29.02 46.921 30.315 15.626 62.458 19.707 155 19.679 66.489-.019 93.62-1.824 120.011-7.982 24.834-5.794 46.045-17.394 55.64-30.427 24.331-33.052-14.903-66.526-92.766-79.149-25.237-4.091-43.711-5.58-73.885-5.955-15.675-.194-31.425-.178-35 .036m5 34.982c-56.213 2.677-99.7 12.216-121.732 26.701-3.448 2.267-6.268 4.454-6.268 4.861 0 1.021 7.46 6.042 13.537 9.11 3.671 1.854 5.502 2.284 6.751 1.585 4.061-2.273 26.212-8.874 37.712-11.238 68.401-14.063 163.16-10.031 210.007 8.936l8.916 3.61 5.054-2.751c2.78-1.513 6.914-4.343 9.187-6.288l4.132-3.537-4.121-3.658c-11.035-9.792-37.803-19.128-65.654-22.897-25.433-3.441-72.975-5.603-97.521-4.434m-36.684 97.017c-.342.891.136 3.928 1.061 6.75C322.841 213.081 335 252.317 335 253.463c0 3.611 2.864 4.537 14.032 4.537 7.47 0 11.227-.392 11.966-1.25.593-.687 6.209-16.537 12.48-35.22 8.363-24.919 11.118-34.311 10.339-35.25-1.463-1.763-20.176-1.789-21.547-.03-.945 1.213-7.542 24.199-10.939 38.115l-1.675 6.865-5.405-20.865c-2.972-11.476-5.81-21.877-6.306-23.115-.856-2.134-1.445-2.25-11.455-2.25-8.803 0-10.656.268-11.174 1.619m79.139-.363c-.265.69-.363 17.003-.218 36.25l.263 34.994 10.413.287c5.727.158 10.762-.067 11.187-.5s1.095-16.184 1.488-35.002c.566-27.083.449-34.535-.559-35.75-1.675-2.018-21.811-2.267-22.574-.279M63.235 417.25 63.5 577.5l2.118 4.578c1.467 3.172 4.004 6.012 8.261 9.25 3.379 2.569 6.363 4.672 6.632 4.672S81 521.504 81 430.454V264.908l-8.6-3.954c-4.729-2.175-8.786-3.954-9.014-3.954-.229 0-.297 72.112-.151 160.25M668.75 260.753l-7.75 3.573v165.872c0 157.683.086 165.824 1.75 164.886 6.451-3.638 11.851-8.991 13.728-13.609 1.996-4.911 2.025-7.023 2.29-164.725.215-128.512.02-159.732-1-159.66-.697.049-4.755 1.697-9.018 3.663M105 442.318c0 108.636.351 169.476.988 171.152.751 1.975 3.544 3.842 11.616 7.767 10.347 5.03 10.667 5.115 12.109 3.215 1.279-1.686 1.402-8.49.903-49.952-.318-26.4-.587-103.147-.597-170.55L130 281.4l-10.75-3.325c-5.912-1.829-11.537-3.546-12.5-3.817-1.662-.466-1.75 8.014-1.75 168.06m516.747-164.593-11.753 3.541.253 171.508c.226 153.223.417 171.612 1.794 172.48 1.119.706 3.859-.07 10-2.83 4.653-2.092 9.696-4.648 11.209-5.682l2.75-1.878V444.432c0-135.728-.255-170.413-1.25-170.341-.687.051-6.539 1.686-13.003 3.634m-467.083 41.431c-.314 17.239-.48 95.17-.368 173.18l.204 141.836 2.517 2.164c1.384 1.19 6.487 3.455 11.34 5.033 7.132 2.319 9.283 2.66 11.219 1.778l2.395-1.091.265-132.278c.145-72.753.142-151.202-.007-174.331l-.271-42.053-11.229-2.35c-6.176-1.292-12.189-2.548-13.362-2.791-2.131-.441-2.133-.423-2.703 30.903m418.325-29.204c-4.13.941-8.743 2.02-10.25 2.399l-2.739.687V641.93l2.098 1.122c1.671.895 3.774.6 10.344-1.448 4.536-1.415 9.442-3.512 10.903-4.66l2.655-2.089V288l-2.75.121c-1.513.066-6.13.89-10.261 1.831m-50.489 9.092c-6.05 1.004-11.562 1.856-12.25 1.891-.995.052-1.25 35.952-1.25 175.994C509 670.303 508.533 656 514.843 656c5.036 0 16.567-3.788 18.392-6.042 1.672-2.064 1.765-11.445 1.765-177.569 0-96.464-.337-175.34-.75-175.281-.413.06-5.7.931-11.75 1.936M207 472.777c0 153.113.184 175.041 1.488 176.902 1.797 2.567 9.026 5.179 16.512 5.967 10.03 1.057 9.041 21.251 8.753-178.713L233.5 301.53l-11.5-1.69c-6.325-.93-12.287-1.724-13.25-1.765-1.66-.071-1.75 8.886-1.75 174.702m51.678-168.121c-.373.372-.671 79.465-.663 175.761.011 139.131.274 175.596 1.279 177.583 1.785 3.529 6.063 5.264 14.186 5.752 5.218.313 7.533.035 9.02-1.085 1.985-1.494 2.002-2.827 2.258-178.516.246-168.171.171-177.035-1.5-177.498-.967-.267-6.033-.774-11.258-1.125s-10.208-.843-11.072-1.094c-.865-.251-1.878-.151-2.25.222M468 305.39l-9.5 1.11v177.331c0 174.383.032 177.354 1.941 178.75 4.125 3.016 18.289.85 21.55-3.297 1.995-2.536 2.009-3.807 2.009-178.919V304l-3.25.14c-1.788.077-7.525.639-12.75 1.25M309 483.885c0 149.937.212 176.685 1.42 179.578 1.648 3.944 5.751 5.522 14.375 5.531 4.294.005 5.76-.458 7.75-2.449l2.455-2.454V309h-5.349c-2.942 0-8.792-.291-13-.647l-7.651-.646zm105.75-175.146-5.75.361v354.991l2.455 2.454c1.768 1.769 3.515 2.443 6.25 2.411 6.797-.078 12.654-1.681 14.509-3.972 1.7-2.099 1.786-10.77 1.786-179.595V308l-6.75.189c-3.712.104-9.337.352-12.5.55m-53.5.923c-.993.401-1.25 36.986-1.25 178.233 0 177.477.003 177.731 2.039 179.916 1.749 1.877 3.111 2.189 9.566 2.189 8.861 0 10.874-.86 12.278-5.242.712-2.222.976-59.113.83-178.898l-.213-175.641-5-.601c-5.864-.704-16.457-.679-18.25.044M43.266 611c.438 11.583 2.992 17.484 12.261 28.338C86.232 675.291 165.646 706.406 260 719.453c82.146 11.358 176.873 9.272 254-5.593 51.239-9.875 88.35-21.505 121.5-38.076 23.789-11.892 40.583-23.916 51.108-36.592 8.821-10.623 10.688-14.991 11.338-26.528l.554-9.836-2.486 3.336c-8.789 11.796-26.077 26.597-41.514 35.542-62.186 36.034-152.432 57.506-258 61.384-105.998 3.894-207.713-13.386-283.5-48.162-31.912-14.644-51.605-29.292-67.797-50.429l-2.297-2.999z"/></svg>
