<svg xmlns="http://www.w3.org/2000/svg" viewBox="0 0 64 64" fill="none">
  <path d="M26.999,29 L26.9997843,37.5156934 C24.5879338,39.1302357 23,41.8796769 23,45 C23,49.9705627 27.0294373,54 32,54 C36.9705627,54 41,49.9705627 41,45 C41,41.8801057 39.4125026,39.1309913 37.00121,37.5163591 L37.001,29 L41.001,29 L41.001,35.62 L41.1032168,35.718377 C43.4744626,38.0430383 44.9026273,41.2209602 44.9952035,44.6449421 L45,45 C45,52.1797017 39.1797017,58 32,58 C24.8202983,58 19,52.1797017 19,45 C19,41.4406447 20.4441745,38.1222884 22.8977776,35.7174013 L23,35.619 L23,29 L26.999,29 Z M34,29 L34.0006859,39.3416539 C36.3307123,40.1655203 38,42.3878187 38,45 C38,48.3137085 35.3137085,51 32,51 C28.6862915,51 26,48.3137085 26,45 C26,42.3874421 27.669769,40.1648796 30.0003218,39.3412977 L30,29 L34,29 Z M51,19 C53.7614237,19 56,21.2385763 56,24 C56,26.7614237 53.7614237,29 51,29 C48.949887,29 47.1879545,27.7661528 46.4162763,26.0005324 L13,26 C11.8954305,26 11,25.1045695 11,24 C11,22.8954305 11.8954305,22 13,22 L46.4158423,22.0004611 C47.1872936,20.23431 48.9495025,19 51,19 Z M31.999,6 L32.2653623,6.0038371 C37.1131863,6.14420851 41,10.1181935 41,14.9997851 L41,19 L37,19 L37,15 C37,12.2385763 34.7614237,10 32,10 C29.2385763,10 27,12.2385763 27,15 L27,19 L23,19 L23,15 C23,10.1181973 26.8868137,6.14420858 31.7346377,6.00383711 L31.999,6 Z" fill="currentColor" fill-rule="nonzero"/>
  <path d="M55,12 C55.5522847,12 56,12.4477153 56,13 C56,13.5522847 55.5522847,14 55,14 L47,14 C46.4477153,14 46,13.5522847 46,13 C46,12.4477153 46.4477153,12 47,12 L55,12 Z" fill="currentColor" fill-rule="nonzero"/>
  <path d="M55,45 C55.5522847,45 56,45.4477153 56,46 C56,46.5522847 55.5522847,47 55,47 L49,47 C48.4477153,47 48,46.5522847 48,46 C48,45.4477153 48.4477153,45 49,45 L55,45 Z" fill="currentColor" fill-rule="nonzero"/>
  <path d="M55,34 C55.5522847,34 56,34.4477153 56,35 C56,35.5522847 55.5522847,36 55,36 L47,36 C46.4477153,36 46,35.5522847 46,35 C46,34.4477153 46.4477153,34 47,34 L55,34 Z" fill="currentColor" fill-rule="nonzero"/>
</svg>
