<svg xmlns="http://www.w3.org/2000/svg" width="960" height="960" xml:space="preserve">
    <g>
        <path style="stroke:none;stroke-width:1;stroke-dasharray:none;stroke-linecap:butt;stroke-dashoffset:0;stroke-linejoin:miter;stroke-miterlimit:4;fill:#141414;fill-rule:evenodd;opacity:1" vector-effect="non-scaling-stroke" transform="matrix(1.87815 0 0 1.87815 10.461 266.106)" d="M249.767.885C111.817.885-.001 51.278-.001 113.444 0 175.608 111.818 226 249.767 226c137.935 0 249.767-50.39 249.767-112.558C499.534 51.277 387.702.886 249.767.886m-.113 207.391c-135.212 0-237.5-42.457-237.5-94.834 0-52.37 102.288-94.829 237.5-94.829 135.206 0 237.722 42.46 237.722 94.828 0 52.378-102.516 94.836-237.722 94.836"/>
        <path style="stroke:none;stroke-width:1;stroke-dasharray:none;stroke-linecap:butt;stroke-dashoffset:0;stroke-linejoin:miter;stroke-miterlimit:4;fill:#141414;fill-rule:evenodd;opacity:1" vector-effect="non-scaling-stroke" transform="matrix(1.87815 0 0 1.87815 10.461 267.769)" d="m61.067 133.575 7.495-45.7c.663-4.09.747-5.607.663-8.81l-.097-1.688-.094-1.53h21.663c-1.878 3.293-3.096 6.743-3.759 10.825l-5.436 33.12c2.345.319 4.595.319 7.87-.246.664-.077 1.227-.244 1.883-.32l1.598-.402 1.307-.317-5.237 15.068zm52.991-12.399c.464 1.52 2.366 2.248 4.161 1.52.379-.08.665-.226.85-.403 1.052-.635 1.615-1.436 1.801-2.868l2.747-16.712c.466-2.318-1.328-3.683-3.878-3.203-1.622.32-2.66 1.437-3.037 3.596l-2.644 16.154a4.2 4.2 0 0 0 0 1.916m-18.07 3.124 4.537-27.347c.276-1.682.943-3.202 2.082-4.479 2.266-2.644 5.01-3.842 8.419-3.842h6.439c3.027 0 4.064.56 5.963 3.197.374.568.655 1.125 1.043 1.77.185.307.275.556.465.873l.954-5.84h17.122l-7.379 44.941h-16.94l1.046-6.16a13.2 13.2 0 0 1-.855 1.047c-.767.797-1.42 1.444-1.99 2.007-2.749 2.545-3.98 3.106-6.997 3.106h-5.124c-6.52 0-9.742-3.437-8.784-9.273m51.602-21.948 2.279-13.719h17.21l-3.118 18.93-.664 4.017a8.588 8.588 0 0 0-.292 2.241c-.28 3.69.292 6.011 1.707 8.343 2.558-2.647 3.878-5.454 4.915-10.584l.662-4.017 3.12-18.93h17.218l-2.276 13.72c-.093.642-.198 1.363-.375 2.002-1.322 6.657-2.175 9.547-3.504 12.596-3.4 7.538-6.517 11.548-11.442 15.483-.56.392-1.134.88-1.694 1.275l-2.65 15.562h-17.021l2.832-15.562c-.935-.883-1.79-1.756-2.55-2.722-3.399-4.334-5.398-10.347-5.202-20.46 0-2.402.28-4.653.845-8.175m43.657 15.288 2.147-12.58h25.485l-2.066 12.58zm25.961 15.935 22.498-45.063h-15.06l4.795-12.665h35.297l-22.962 43.78h14.96l-4.607 13.948zm43.278-15.935 2.166-12.58h25.477l-2.064 12.58zm27.972 15.935 2.177-13.146h17.486l1.414-8.816h-8.22c-5.764 0-8.03-2.4-7.459-9.15 0-.635.088-1.36.185-1.997l2.082-12.662c1.13-6.5 2.166-8.348 5.67-10.35 2.355-1.285 3.863-1.607 9.064-1.607h23.254l-2.078 12.665h-17.676l-1.423 8.425h9.363c3.116 0 4.623.565 5.852 1.767 1.327 1.202 1.712 2.56 1.136 5.772l-3.118 19.243c-.66 3.683-.94 4.487-1.885 5.766-2.177 2.97-4.914 4.09-9.925 4.09h-25.9zm63.438-11.412c1.319 1.046 3.59.796 4.926-.807.467-.478.56-.88.849-2.33l2.835-17.157c.29-1.844-1.137-2.888-3.684-2.653-1.616.17-2.655 1.135-2.942 2.814l-2.84 17.084c-.282 1.68-.098 2.412.856 3.049zm-23.392 27.105 10.042-60.634h17.605l-1.133 6.5c.283-.318.468-.643.757-.962 4.165-5.694 4.073-5.538 13.732-5.538h.763c6.247 0 9.088 2.739 7.854 9.945l-3.978 24.219c-.1.57-.288 1.127-.372 1.767-1.608 6.027-5.217 8.827-10.613 9.066l-3.792.08c-3.691.088-5.299-.398-7.863-2.64-1.13-.962-1.79-2.096-2.26-3.372l-3.597 21.569zm70.983-28.092c.487 1.52 2.376 2.248 4.175 1.52.384-.08.66-.226.858-.403 1.035-.635 1.6-1.436 1.8-2.868l2.743-16.712c.466-2.318-1.329-3.683-3.885-3.203-1.61.32-2.656 1.437-3.027 3.596l-2.664 16.154c-.18.806-.085 1.438 0 1.916M381.42 124.3l4.54-27.347c.286-1.682.942-3.202 2.082-4.479 2.271-2.644 5.022-3.842 8.426-3.842h6.439c3.02 0 4.068.56 5.958 3.197.38.568.665 1.125 1.046 1.77.184.307.283.556.465.873l.954-5.84h17.13l-7.384 44.941h-16.94l1.043-6.16c-.26.368-.547.718-.856 1.047-.754.797-1.416 1.444-1.988 2.007-2.738 2.545-3.967 3.106-7 3.106h-5.118c-6.528 0-9.74-3.437-8.797-9.273m56.188-40.681h-.025l-1.335 2.824h-.702l-1.339-2.824h-.017v2.824h-.912v-3.594h1.46l1.162 2.455 1.164-2.455h1.449v3.594h-.905zm-7.685-.16h-1.417v-.61h3.737v.61h-1.42v2.984h-.9z"/>
    </g>
</svg>
