<svg xmlns="http://www.w3.org/2000/svg" viewBox="0 0 1024 1024">
  <path fill="currentColor" fill-rule="evenodd" d="M335.5 40.133c-69.572 4.921-126.986 22.829-144.589 45.099-5.626 7.118-7.032 10.986-7.652 21.054l-.541 8.787-3.868 2.713c-2.329 1.634-4.895 4.78-6.447 7.904l-2.579 5.19-.162 29.81c-.202 37.234-.368 36.684 13.959 46.379 3.917 2.65 7.428 5.617 7.803 6.592.374.976.955 46.435 1.29 101.02l.609 99.246-9.522 9.286c-15.753 15.363-24.354 27.532-28.828 40.787-2.234 6.617-3.527 25.184-5.626 80.797-.542 14.373-.923 17.44-2.25 18.147-.878.468-8.122 2.268-16.097 3.999-33.3 7.229-51.351 13.015-57.505 18.431-2.291 2.017-4.757 5.926-6.949 11.016-1.868 4.339-3.993 8.479-4.721 9.201s-13.25 4.282-27.825 7.912-28.187 7.044-30.25 7.587l-3.75.987v56.962C0 710.367.355 736 .789 736s15.622-4.199 33.75-9.332c18.129-5.133 37.987-10.634 44.13-12.224 12.953-3.354 12.916-3.363 24.037 5.471 8.379 6.657 12.863 7.252 27.695 3.678 5.917-1.426 11.554-2.593 12.525-2.593s11.847 6.652 24.17 14.782a8889 8889 0 0 0 44.682 29.25c54.002 35.071 71.199 46.202 78.222 50.631 4.125 2.602 19.875 12.662 35 22.356 34.764 22.282 68.802 43.831 90 56.979 9.075 5.628 21.675 13.516 28 17.528 36.981 23.456 66.012 40.703 70.928 42.137 9.939 2.898 9.911 2.905 116.572-28.143 4.95-1.441 12.015-3.51 15.701-4.598 8.82-2.603 12.124-5.939 14.809-14.956 1.33-4.465 2.779-7.318 4.068-8.008 1.101-.589 16.047-5.298 33.212-10.465s40.21-12.135 51.21-15.486C808.648 854.987 829.096 849 831.494 849c1.57 0 5.605 2.058 9.857 5.026 9.307 6.499 11.79 6.831 23.649 3.166 18.122-5.601 94.512-31.866 96.75-33.266 4.74-2.964 5.75-7.167 5.75-23.926 0-12.903-.295-16.039-1.758-18.716-1.22-2.232-6.573-6.384-17.5-13.576-8.658-5.698-16.261-11-16.894-11.784-.729-.9-1.421-9.043-1.881-22.122l-.728-20.698 2.38-.489c1.31-.269 4.962-.745 8.118-1.059 3.155-.314 10.805-2.311 17-4.438 24.877-8.544 28.809-11.037 33.792-21.426l2.786-5.808 15.579-5.27 15.579-5.271.278 33.079c.152 18.193.284 7.203.294-24.422.009-31.625-.123-51.218-.294-43.541-.326 14.69-.593 15.497-5.139 15.526-2.365.015-2.381-.056-1.712-7.445.86-9.484-.859-26.576-3.55-35.297-1.917-6.215-6.198-15.397-9.05-19.409-1.643-2.312.281-4.439 4.779-5.283 5.175-.971 7.091.038 10.945 5.761l3.476 5.161v-32.759l-7.75.586c-7.826.591-25.832 5.78-41.127 11.852l-7.376 2.928-7.822-1.595c-7.205-1.47-8.593-1.465-17.623.064-5.391.913-13.97 2.737-19.065 4.055-5.094 1.318-9.919 2.396-10.722 2.396-.924 0-2.046-2.108-3.06-5.75-3.912-14.049-7.718-24.167-10.825-28.774-1.845-2.737-14.116-15.326-27.269-27.976-30.178-29.025-63.889-61.271-76.879-73.539a61448 61448 0 0 1-36-34.049c-47.965-45.392-47.986-45.409-62.297-48.389-11.833-2.464-19.052-1.955-41.359 2.914C615.062 374.116 571.954 383 569.603 383c-1.649 0-2.563-.703-2.957-2.276-.314-1.251-.595-39.74-.623-85.531l-.051-83.256 2.406-2.219c1.323-1.22 4.538-3.988 7.145-6.152 8.222-6.824 8.43-7.824 8.455-40.634.025-32.968-.544-36.519-6.743-42.071-2.064-1.848-4.771-4.036-6.015-4.861-1.92-1.273-2.335-2.618-2.742-8.895-.78-12.035-3.041-17.607-10.33-25.457-16.283-17.535-60.383-32.82-112.648-39.044-29.046-3.458-79.892-4.6-110-2.471m28.693 4.874c-17.514 2.456-24.399 7.536-16.888 12.458 11.036 7.23 56.518 5.339 60.727-2.526 1.659-3.099-2.575-6.862-9.546-8.487-7.725-1.8-26.213-2.579-34.293-1.445M316.5 63.696c-33.61 3.019-72.254 12.4-87.315 21.196-25.385 14.825-19.414 31.28 15.815 43.581 32.979 11.516 78.796 17.507 134 17.521 62.19.016 123.235-9.635 146.239-23.12 36.983-21.68 4.824-46.647-73.824-57.315-6.097-.827-16.11-1.809-22.25-2.182L418 62.699l-.024 14.901c-.025 15.88-.919 22.154-3.417 23.98-.853.624-4.14 1.408-7.305 1.743s-9.125 1.76-13.245 3.166c-22.062 7.528-48.38 4.503-55.731-6.405-2.147-3.185-2.278-4.351-2.278-20.232V63l-7.75.168c-4.262.093-9.55.33-11.75.528m-120.02 75.495c-.286.746-.399 11.227-.25 23.292l.27 21.935 5 3.795c6.857 5.206 25.263 14.445 26.372 13.238 1.094-1.19 2.386-44.557 1.372-46.03-.409-.594-5.469-3.375-11.244-6.181s-12.862-6.519-15.75-8.253c-3.976-2.387-5.376-2.823-5.77-1.796m350.125 4.367c-4.893 2.991-9.572 5.999-10.398 6.685-1.287 1.068-1.421 4.503-.937 23.964.311 12.495.853 23.183 1.205 23.752 1.356 2.195 19.776-9.735 21.516-13.937 1.439-3.474.075-45.207-1.491-45.632-.55-.149-5.003 2.176-9.895 5.168M493.5 163.535c-7.15 1.782-14.8 3.628-17 4.103l-4 .862-.267 24.613c-.21 19.291.015 24.848 1.039 25.697.955.794 3.976.417 11.267-1.405 12.332-3.083 25.504-7.308 27.347-8.774 1.147-.912 1.262-5.058.664-24.101-.397-12.65-.935-23.344-1.195-23.765-.741-1.199-3.898-.709-17.855 2.77m-239.809-.171c-.288.75-.651 11.603-.806 24.118-.261 21.006-.143 22.856 1.531 24.08 2.013 1.472 29.352 8.268 36.82 9.152l4.764.565v-23.058c0-12.682.22-23.657.489-24.389 1.009-2.745-1.399-3.862-12.541-5.815-6.296-1.104-15.189-2.909-19.761-4.012-9.874-2.381-9.83-2.379-10.496-.641m174.809 9.747c-4.95.46-14.175 1.185-20.5 1.612l-11.5.777-.267 25.227-.267 25.226 2.673.671c3.051.766 38.858-1.334 44.756-2.625 2.143-.468 4.274-1.447 4.735-2.175 1.017-1.604 1.095-14.298.214-34.665L447.688 172l-5.094.138c-2.802.076-9.144.514-14.094.973m-107.798.521c-.386.386-.702 11.596-.702 24.912 0 18.158.313 24.466 1.25 25.232 1.734 1.417 23.07 3.224 38.065 3.224 10.449 0 12.569-.256 13.078-1.582.917-2.388.728-48.225-.2-48.799-.444-.274-10.907-.98-23.25-1.568s-23.59-1.305-24.991-1.595c-1.402-.289-2.864-.21-3.25.176M530 228.934c-7.03 4.093-41.933 13.626-62.5 17.071-28.372 4.752-50.123 6.36-87 6.429-59.941.113-98.884-5.129-140.95-18.971-7.459-2.455-13.819-4.463-14.134-4.463s-.425 50.803-.244 112.895c.323 111.245.357 112.929 2.328 115.135 11.495 12.871 44.946 28.071 77.925 35.411 11.464 2.551 11.991 2.584 13.633.856.94-.988 4.074-8.997 6.965-17.797 5.617-17.096 8.029-22.583 12.803-29.129 3.759-5.155 13.486-12.714 20.414-15.865 9.97-4.535 71.893-19.116 139.58-32.867 19.975-4.058 36.773-7.832 37.328-8.387.673-.673.766-27.631.278-81.13L535.697 228l-2.099.03c-1.154.017-2.773.424-3.598.904m-16 38.914-6.5 1.652-2.63 10c-1.469 5.587-2.901 9.338-3.246 8.5-.339-.825-1.683-4.65-2.986-8.5l-2.371-7-5.383.223c-7.572.313-10.282 1.077-9.115 2.568.521.665 3.936 7.894 7.589 16.065 6.578 14.712 6.642 14.941 6.642 23.75 0 9.971-.348 9.632 7.924 7.722l5.076-1.171v-8.708c0-8.131.43-9.944 6.5-27.411 3.575-10.287 6.5-18.892 6.5-19.121 0-.564-.51-.473-8 1.431m-249 32.131v27.071l2.309.877c4.801 1.826 17.324 3.357 21.868 2.675 13.283-1.995 17.817-14.706 8.877-24.888l-2.856-3.252 2.901-3.247c6.311-7.063 1.676-18.196-9.01-21.641-2.524-.813-7.514-1.956-11.089-2.539s-7.962-1.3-9.75-1.593l-3.25-.533zm205.521-24.62-5.979 1.141-2.251 10c-1.238 5.5-3.826 17.025-5.75 25.612s-3.79 16.372-4.146 17.301c-.578 1.505-.062 1.615 4.728 1.004 7.378-.94 8.511-1.724 9.26-6.412.683-4.272 3.01-6.005 8.063-6.005 1.919 0 2.516.791 3.477 4.607l1.16 4.608 4.708-.679c9.934-1.433 9.584 1.091 3.174-22.849-8.112-30.295-7.925-29.698-9.254-29.578-.666.06-3.901.622-7.19 1.25m-19.729 2.566c-2.589.362-4.927.877-5.195 1.145-.464.463-3.522 19.539-3.665 22.856-.143 3.344-1.856-2.62-3.495-12.176l-1.673-9.75-5.132.015c-2.823.009-5.675.361-6.338.782s-1.96 5.702-2.882 11.735-2.006 11.591-2.409 12.353c-.409.771-1.571-4.101-2.623-11-1.039-6.812-2.225-12.272-2.635-12.135s-3.22.25-6.245.25c-5.417 0-5.5.044-5.5 2.935 0 1.614.654 6.045 1.454 9.847s2.617 13.394 4.039 21.315 2.822 15.191 3.113 16.153c.56 1.853 5.206 2.338 11.105 1.158 2.941-.588 2.976-.678 5.189-13.231 1.225-6.951 2.361-12.771 2.523-12.933s.825 3.204 1.473 7.481 1.657 9.912 2.242 12.525l1.061 4.75h5.21c2.865 0 5.925-.562 6.801-1.25.9-.706 2.277-4.73 3.166-9.25 1.292-6.572 7.624-43.306 7.624-44.231 0-.312-.81-.238-7.208.656m-145.114 1.731c-.373.372-.678 12.479-.678 26.902v26.225l2.25.547c1.238.3 8.236.864 15.551 1.252l13.302.706-.302-6.394-.301-6.394-8-.5-8-.5-.31-3.75-.311-3.75H334v-5.875c0-5.78-.051-5.885-3.125-6.5-1.719-.344-5.094-.625-7.5-.625-4.333 0-4.375-.033-4.375-3.5V294h16v-5.921c0-6.934.734-6.574-15.5-7.585-5.5-.342-10.708-.824-11.572-1.069-.865-.246-1.878-.142-2.25.231m44.822 3.011c-8.294 2.198-12.687 7.419-12.805 15.217-.102 6.797 2.997 11.313 10.875 15.844 6.824 3.925 8.179 5.664 6.236 8.006-1.218 1.467-6.128 1.359-12.934-.286-2.476-.598-2.698-.34-3.852 4.47-.674 2.808-.992 5.712-.708 6.453.687 1.79 8.28 3.633 14.881 3.613 14.055-.044 22.04-13.849 14.849-25.674-1.145-1.883-4.412-4.453-8.221-6.468-5.184-2.741-6.321-3.792-6.321-5.842 0-3.18 2.936-3.721 8.99-1.658l4.387 1.495.641-2.919c.784-3.569 2.482-3.855 2.482-.418 0 2.296.367 2.5 4.5 2.5h4.5v39.279l5.25-.631c2.887-.347 6.038-.635 7-.639 1.605-.008 1.75-1.578 1.75-18.892 0-18.738.017-18.888 2.25-19.487 1.238-.331 3.488-.609 5-.616 3.034-.015 3.343-1.525 1.934-9.461l-.701-3.947-14.991.248c-11.106.184-15.23.592-15.91 1.576-.763 1.102-1.457 1.103-4.082.005-3.687-1.54-12.112-2.533-15-1.768M279 291.5c0 5.357.073 5.5 2.8 5.5 3.568 0 5.2-1.648 5.2-5.251 0-2.308-.66-3.127-3.468-4.3-1.907-.797-3.707-1.449-4-1.449s-.532 2.475-.532 5.5M470.31 302c-.943 5.855-.912 6 1.303 6 1.248 0 2.478-.338 2.733-.751.659-1.066-1.46-11.249-2.341-11.249-.401 0-1.164 2.7-1.695 6M279 313.5v5.5h3.443c2.372 0 3.904-.658 4.925-2.115 2.519-3.596-.769-8.885-5.523-8.885-2.782 0-2.845.122-2.845 5.5m390 79.454c-4.675.997-23.125 4.821-41 8.498l-61 12.552c-37.666 7.755-93.422 19.214-141.378 29.056-21.382 4.389-39.288 8.234-39.791 8.544s1.917 3.569 5.378 7.24c7.137 7.573 42.036 48.212 91.16 106.156 18.568 21.901 31.723 37.337 39.654 46.53 15.639 18.126 17.662 21.258 20.646 31.97 1.43 5.134 2.181 17.312 4.813 78 1.663 38.349 2.418 49.72 3.408 51.322.428.692 6.498-.616 17.631-3.8 21.793-6.233 62.558-17.637 139.479-39.018 33.825-9.402 70.95-19.735 82.5-22.963a55409 55409 0 0 1 59.5-16.564c21.175-5.882 39.513-11.332 40.75-12.109 2.957-1.859 2.922-4.905-.307-26.65-5.56-37.433-14.448-76.759-19.945-88.252-3.107-6.493-5.269-8.836-28.141-30.5-13.627-12.906-34.04-32.241-45.361-42.966-76.057-72.051-101.56-95.71-104.803-97.224-4.716-2.201-12.312-2.143-23.193.178m7.5 37.649c-2.145.534-46.477 10.103-76 16.405-20.69 4.416-84.716 18.667-101 22.481-16.92 3.963-19.971 5.183-23.937 9.573-2.987 3.306-3.563 4.681-3.563 8.507 0 2.509.525 5.545 1.168 6.747 2.616 4.895 28.358 37.972 31.685 40.715 1.971 1.624 5.755 3.675 8.409 4.556 9.148 3.038 18.892 1.687 68.238-9.465 117.055-26.453 145.23-32.982 148.853-34.496 4.869-2.035 10.418-7.308 11.138-10.584 1.291-5.879-1.154-10.711-10.804-21.349-26.189-28.873-31.113-32.512-44.947-33.218-3.982-.203-8.14-.146-9.24.128m-9.398 22.227c-7.381 1.729-11.768 3.262-12.45 4.35-.844 1.346.127 3.402 4.898 10.364 6.611 9.649 10.523 13.465 13.777 13.439 3.826-.031 26.582-5.662 28.155-6.968 2.454-2.036 1.849-3.635-4.547-12.02-10.293-13.495-10.747-13.635-29.833-9.165m-477.421 8.97c-2.912 3.218-4.878 10.339-4.294 15.552.727 6.499 4.043 11.83 12.265 19.721 8.861 8.505 19.357 15.502 35.142 23.426 20.435 10.258 65.697 28.017 68.584 26.909.807-.309 2.18-2.344 3.051-4.522 2.167-5.417 5.644-18.146 5.104-18.687-.242-.241-7.998-2.371-17.236-4.731-50.073-12.795-86.553-33.129-96.048-53.539-2.935-6.308-3.994-6.974-6.568-4.129m433.594 1.263c-7.106 1.486-11.082 6.824-9.874 13.26.739 3.94 3.675 6.975 8.831 9.129 4.852 2.028 8.341 1.925 13.452-.395 4.165-1.892 7.32-6.101 7.312-9.757-.005-2.613-3.49-7.923-6.489-9.887-3.325-2.179-9.124-3.209-13.232-2.35m-45.96 12.944c-3.974 1.601-5.603 7.717-3.235 12.143 1.31 2.447 6.73 4.85 10.938 4.85 4.43 0 8.843-2.598 9.611-5.659 2.031-8.091-8.406-14.923-17.314-11.334m-56.815 6.58c-13.968 3.188-17.5 4.716-17.5 7.573 0 .427 3.67 6.2 8.156 12.828 5.416 8.004 8.928 12.246 10.454 12.629 3.048.765 35.491-6.291 37.317-8.117 1.864-1.862.988-3.753-7.006-15.134-8.632-12.29-9.727-13.38-13.345-13.284-1.692.045-9.826 1.622-18.076 3.505m-162.215-1.337c-.529.688-4.216 12.05-8.194 25.25-14.354 47.626-22.213 72.046-23.976 74.5-.988 1.375-3.654 3.156-5.924 3.958-3.977 1.405-4.507 1.327-14.41-2.122-13.748-4.788-51.807-20.352-69.781-28.536-16.652-7.583-36.021-18.269-44.724-24.676l-5.992-4.411-.563 8.644c-.635 9.734.461 34.659 1.573 35.77.399.399 6.009-.525 12.466-2.054 22.906-5.423 28.256-4.656 38.11 5.468 13.696 14.072 22.116 37.069 22.213 60.666.024 5.829-.504 13.663-1.173 17.408-.954 5.337-.955 7.126-.004 8.271 1.847 2.227 27.088 19.408 40.594 27.632C312.837 695.749 334.287 707 336.595 707c.907 0 4.517-2.682 8.02-5.959 7.07-6.614 12.942-9.041 21.87-9.041 9.665 0 19.192 6.754 23.909 16.949 1.762 3.807 2.106 6.463 2.106 16.251 0 6.546.445 12.145 1.01 12.71.556.556 7.981 4.79 16.5 9.409s28.09 15.264 43.49 23.656c51.002 27.792 59.544 32.222 61.028 31.652 1.809-.694 1.954-12.58.478-39.201-.546-9.859-1.89-35.926-2.986-57.926s-2.258-42.475-2.581-45.5c-.834-7.791-4.192-14.396-11.554-22.72-16.719-18.904-96.741-112.13-122.806-143.068-11.898-14.123-14.412-16.063-16.794-12.962M798 583.412c-85.521 21.712-182.839 46.317-207.701 52.512-12.761 3.18-24.369 6.547-25.795 7.481-3.678 2.41-4.767 5.904-3.411 10.942 2.447 9.1 6.284 12.288 13.206 10.977 2.898-.549 50.556-12.685 105.201-26.79 11.55-2.981 36.975-9.526 56.5-14.545a33697 33697 0 0 0 62-16.004c14.575-3.783 32.927-8.487 40.782-10.452 7.855-1.966 16.026-4.273 18.158-5.126 4.839-1.936 6.56-5.588 5.612-11.912-.867-5.777-3.999-9.435-8.552-9.987-2.334-.283-20.989 4.016-56 12.904m-661-2.977c-7.425 1.761-14.083 3.403-14.796 3.648-.824.285.994 3.015 5 7.507 3.463 3.883 7.749 9.164 9.525 11.735 1.838 2.661 3.993 4.658 5 4.635.974-.022 6.946-1.315 13.271-2.875 12.596-3.106 14.746-2.921 16.897 1.457 1.199 2.442 1.196 3.205-.028 5.401-1.206 2.164-3.214 3.018-13.068 5.557-6.403 1.65-11.886 3.245-12.183 3.545s.548 4.505 1.879 9.344c1.332 4.84 2.942 12.469 3.579 16.955s1.464 8.491 1.836 8.901 6.237-.612 13.031-2.271c11.601-2.833 12.465-2.915 14.205-1.34 2.293 2.075 2.5 8.583.33 10.384-.836.694-7.225 2.662-14.197 4.372l-12.676 3.11-1.268 8.795c-.697 4.837-1.721 10.437-2.275 12.444s-.835 3.821-.625 4.031c.627.628 30.775-7.747 34.482-9.578 2.501-1.236 4.097-3.166 5.942-7.191 2.393-5.218 2.514-6.325 2.35-21.501-.151-13.978-.54-17.468-3.08-27.615-5.912-23.615-19.1-44.819-31.657-50.897-5.072-2.456-4.988-2.462-21.474 1.447m847.323 9.261c-4.42.861-4.734 2.847-1.249 7.911 6.72 9.768 10.664 24.97 11.592 44.681.357 7.584 1.037 14.029 1.513 14.322 1.52.94 8.261-3.021 9.548-5.61 1.779-3.577 1.619-24.216-.258-33.185-3.603-17.222-10.622-29.103-16.942-28.679-1.115.075-3.007.327-4.204.56M941 591.991c-12.335 2.737-13 2.974-13 4.626 0 1.596 10.251 16.802 12.096 17.942 1.648 1.019 24.908-4.915 24.9-6.351-.006-1.187-4.03-7.47-7.591-11.854-4.636-5.706-7.237-6.398-16.405-4.363M96 613.723c-.825.31-2.563.957-3.861 1.438l-2.361.874 4.048 4.392c5.103 5.536 8.424 12.07 11.825 23.266 2.402 7.907 2.666 10.289 2.582 23.307-.052 7.975-.238 15.85-.413 17.5-.306 2.868-.166 2.987 3.18 2.713 5.151-.423 10.294-3.3 12-6.713 1.134-2.267 1.469-6.298 1.374-16.5-.146-15.652-2.989-28.745-8.475-39.039-4.461-8.368-8.776-11.983-14.184-11.882-2.318.043-4.89.333-5.715.644m-27 6.96c-4.149.681-8 2.487-8 3.751 0 .656 1.405 2.514 3.123 4.129 4.204 3.954 10.389 16.915 12.545 26.291 1.92 8.344 2.46 28.445.969 36.043l-.862 4.397 3.862-.524c6.309-.854 11.259-3.402 12.575-6.472.741-1.729 1.187-7.953 1.167-16.298-.028-11.407-.442-15.007-2.674-23.221-4.169-15.338-9.722-24.635-16.376-27.415-1.796-.75-3.392-1.303-3.547-1.228s-1.407.321-2.782.547m888.219 2.225c-5.654 1.515-10.72 3.193-11.257 3.73-.635.635-.307 4.278.937 10.419 1.053 5.194 2.199 11.519 2.548 14.056l.635 4.614 4.686-.876c2.578-.482 8.185-1.819 12.459-2.973l7.773-2.097v-4.28c0-9.768-4.242-25.692-6.773-25.424-.4.042-5.353 1.316-11.008 2.831M.441 679l.03 57.5.514-47.974.515-47.974 3.666 4.474c4.874 5.95 8.134 12.634 11.459 23.497 2.464 8.05 2.763 10.629 2.902 24.977.175 18.055.101 17.913 7.929 15.2 7.094-2.458 8.059-4.891 7.946-20.027-.121-16.159-2.584-27.372-8.516-38.775-6.776-13.025-12.89-16.43-22.38-12.465l-3.43 1.433-.332-8.683C.561 625.407.425 647.375.441 679m35.309-49.4c-2.612.803-4.75 1.738-4.75 2.077s1.512 2.463 3.361 4.72c4.574 5.585 8.932 14.509 11.771 24.103 2.09 7.06 2.368 10.027 2.368 25.25 0 11.571.352 17.25 1.068 17.25.588 0 3.398-.692 6.244-1.537 7.815-2.32 8.701-4.576 8.634-21.963-.044-11.379-.476-15.498-2.309-22-3.221-11.431-8.358-21.563-13.107-25.854-4.411-3.985-6.119-4.248-13.28-2.046m925.75 34.853c-4.4 1.271-8.721 2.611-9.601 2.979-1.19.496-1.915 3.254-2.819 10.716-.67 5.526-.969 10.296-.665 10.6.576.576 13.734-3.039 19.269-5.293 4.207-1.715 6.317-6.077 7.026-14.53l.58-6.925-2.895.071c-1.592.04-6.495 1.111-10.895 2.382m-744.516 8.404c-3.512 1.871-5.942 5.247-5.969 8.294-.022 2.485 9.18 12.864 17.823 20.102 20.952 17.547 42.462 27.508 69.543 32.206 15.214 2.64 48.756 1.714 55.903-1.543 3.684-1.678 5.119-5.705 3.791-10.636-1.754-6.514-3.817-7.695-11.277-6.455-22.625 3.762-47.097 1.617-67.798-5.943-7.718-2.818-23.467-11.307-30-16.17-3.025-2.252-9.622-8.058-14.66-12.903-9.915-9.536-11.395-10.128-17.356-6.952M854 722.532a59496 59496 0 0 0-57 16.389c-61.435 17.721-70.966 20.454-76 21.792-3.025.805-14.05 3.943-24.5 6.975s-25.075 7.21-32.5 9.284-23.85 6.757-36.5 10.408-34.7 9.963-49 14.028l-26 7.392.296 19.304c.165 10.742.734 19.83 1.283 20.491.755.91 2.561.773 7.704-.583 7.411-1.955 33.4-9.504 48.217-14.006 5.225-1.587 25.7-7.674 45.5-13.526s44.1-13.047 54-15.99 34.875-10.363 55.5-16.489c75.484-22.42 128.11-39.224 130.01-41.513.933-1.125 1.018-5.32.356-17.731-.809-15.189-.997-16.272-2.866-16.479-1.1-.122-18.425 4.492-38.5 10.254M315.001 767.75l.001 11.75 24.749 15.478a13799 13799 0 0 0 40.749 25.387c55.796 34.555 69.256 42.88 98.222 60.753C496.445 892.053 511.407 901 511.972 901c.649 0 1.028-4.594 1.028-12.449v-12.449l-3.25-2.413c-1.788-1.327-11.125-7.139-20.75-12.917s-29.2-17.609-43.5-26.292-38.375-23.296-53.5-32.472-33.575-20.432-41-25.013C324.368 760.565 316.73 756 315.871 756c-.479 0-.871 5.288-.87 11.75M857.5 787.49c-6.05 1.854-23.375 7.032-38.5 11.507-29.486 8.725-61.325 18.217-140.5 41.885-27.5 8.22-52.847 15.729-56.328 16.686-4.015 1.104-6.811 2.505-7.652 3.836-.775 1.227-1.982 9.555-2.911 20.096-1.925 21.825-2.163 21.324 8.703 18.33 9.075-2.5 10.688-4.28 10.688-11.792 0-9.838 1.104-11.575 8.821-13.886 40.572-12.149 149.845-44.969 157.179-47.208l35.913-10.974c22.745-6.951 26.61-7.876 27.825-6.66.777.776 2.201 4.512 3.166 8.301l1.754 6.889 4.421-.086c6.636-.13 11.921-2.716 11.921-5.833 0-3.717-6.848-31.693-8.139-33.248-1.603-1.932-4.076-1.606-16.361 2.157"/>
</svg>
