<?xml version="1.0" standalone="no"?>
<!DOCTYPE svg PUBLIC "-//W3C//DTD SVG 20010904//EN"
 "http://www.w3.org/TR/2001/REC-SVG-20010904/DTD/svg10.dtd">
<svg version="1.0" xmlns="http://www.w3.org/2000/svg"
 width="476.000000pt" height="473.000000pt" viewBox="0 0 476.000000 473.000000"
 preserveAspectRatio="xMidYMid meet">

<g transform="translate(0.000000,473.000000) scale(0.100000,-0.100000)"
fill="#000000" stroke="none">
<path d="M2180 4710 c-585 -55 -1092 -296 -1495 -711 -772 -795 -884 -2019
-271 -2939 389 -582 1016 -964 1708 -1039 125 -14 381 -14 506 0 695 75 1327
460 1714 1044 205 310 340 688 379 1064 17 162 7 463 -21 620 -89 509 -313
936 -678 1292 -374 367 -809 581 -1329 654 -132 19 -391 26 -513 15z m1225
-685 c33 -8 98 -34 145 -57 67 -33 101 -58 170 -127 147 -148 200 -267 207
-466 6 -140 -9 -217 -61 -328 -86 -186 -257 -330 -456 -384 -89 -24 -271 -24
-360 0 -311 85 -520 358 -520 680 0 192 60 343 190 480 111 117 232 184 385
213 82 16 214 11 300 -11z m-1672 -180 c210 -54 347 -229 347 -438 0 -129 -38
-224 -123 -315 -91 -95 -201 -142 -333 -142 -222 0 -409 162 -446 384 -52 315
248 591 555 511z m161 -1139 c278 -83 495 -270 616 -530 65 -137 84 -228 84
-401 1 -126 -3 -165 -23 -240 -75 -289 -266 -520 -535 -646 -120 -56 -221 -80
-361 -86 -145 -7 -236 6 -368 51 -124 42 -238 111 -337 204 -207 192 -312 428
-313 707 -1 124 9 194 45 305 98 306 367 561 674 639 118 30 117 30 279 27
128 -3 163 -7 239 -30z m1538 -746 c320 -119 410 -530 169 -771 -296 -296
-800 -87 -801 332 0 126 66 271 161 352 53 46 147 94 209 107 68 14 198 4 262
-20z"/>
<path d="M3092 3874 c-147 -39 -284 -150 -351 -284 -156 -313 14 -690 352
-777 248 -63 510 55 624 284 83 166 81 340 -6 511 -58 114 -211 231 -347 267
-72 19 -201 18 -272 -1z m213 -418 c54 -35 75 -129 41 -181 -64 -98 -215 -77
-246 34 -25 90 50 177 143 167 21 -2 49 -11 62 -20z"/>
<path d="M1527 3686 c-203 -73 -263 -324 -116 -490 74 -85 228 -116 334 -68
63 29 119 83 153 147 38 74 38 178 -1 257 -34 69 -101 131 -164 152 -56 19
-154 20 -206 2z m171 -221 c32 -38 30 -89 -7 -126 -57 -56 -145 -27 -158 53
-5 33 -2 41 31 74 33 33 41 36 74 31 22 -4 46 -17 60 -32z"/>
<path d="M1485 2576 c-178 -35 -298 -99 -426 -226 -182 -180 -261 -382 -246
-628 8 -127 26 -195 87 -318 102 -209 292 -363 525 -425 111 -30 298 -30 407
-1 83 23 191 73 267 124 71 49 182 167 229 247 81 138 131 340 117 480 -36
358 -267 636 -608 731 -94 27 -260 34 -352 16z m188 -637 c46 -12 100 -58 117
-99 7 -17 11 -53 8 -84 -12 -150 -185 -214 -292 -110 -60 58 -70 148 -24 222
20 33 41 48 93 69 39 15 52 15 98 2z"/>
<path d="M3167 1816 c-167 -62 -250 -237 -193 -406 26 -76 110 -160 186 -185
159 -54 317 10 391 160 29 60 31 70 27 147 -7 125 -56 207 -160 263 -43 24
-67 29 -133 32 -52 2 -93 -2 -118 -11z m176 -236 c38 -43 36 -83 -7 -126 -50
-50 -121 -42 -152 17 -23 46 -17 78 21 116 32 32 40 35 73 30 24 -4 47 -17 65
-37z"/>
</g>
</svg>
