<?xml version="1.0" standalone="no"?>
<!DOCTYPE svg PUBLIC "-//W3C//DTD SVG 20010904//EN"
 "http://www.w3.org/TR/2001/REC-SVG-20010904/DTD/svg10.dtd">
<svg version="1.0" xmlns="http://www.w3.org/2000/svg"
 width="474.000000pt" height="475.000000pt" viewBox="0 0 474.000000 475.000000"
 preserveAspectRatio="xMidYMid meet">

<g transform="translate(0.000000,475.000000) scale(0.100000,-0.100000)"
fill="#000000" stroke="none">
<path d="M2240 4723 c-498 -35 -913 -190 -1305 -486 -113 -86 -320 -292 -415
-412 -314 -402 -483 -869 -497 -1381 -9 -306 25 -539 118 -819 231 -696 788
-1253 1484 -1484 255 -85 478 -121 750 -121 339 0 638 62 951 198 653 283
1161 886 1333 1582 44 178 61 301 68 495 23 639 -214 1252 -662 1714 -301 311
-647 516 -1070 635 -226 63 -531 95 -755 79z m170 -787 l0 -63 -112 -8 c-226
-14 -395 -55 -575 -140 -160 -76 -279 -161 -414 -295 -252 -251 -402 -571
-426 -910 l-6 -90 62 0 c35 0 61 -4 59 -9 -8 -22 -184 -321 -188 -321 -4 0
-180 299 -188 321 -2 5 23 9 56 9 l60 0 7 83 c33 400 207 766 498 1043 224
215 502 359 795 413 133 25 153 27 275 29 l97 2 0 -64z m738 -419 l53 -54 -37
-33 c-59 -51 -147 -87 -273 -109 -94 -16 -123 -26 -167 -55 -52 -35 -100 -94
-122 -151 -6 -16 -18 -73 -27 -125 -21 -128 -59 -206 -137 -284 -81 -81 -160
-119 -293 -141 -118 -19 -190 -51 -239 -105 -53 -59 -73 -107 -92 -216 -21
-128 -66 -226 -138 -297 -88 -89 -164 -123 -324 -148 -84 -12 -122 -27 -172
-63 l-34 -26 -55 54 -55 55 24 26 c45 48 158 95 271 114 119 20 186 49 234
103 52 57 71 104 93 224 25 138 63 218 143 295 80 79 160 116 299 139 126 22
175 45 234 111 50 54 72 106 86 202 22 150 61 228 161 323 72 67 144 99 275
123 122 22 144 29 194 65 19 14 37 25 40 26 3 0 29 -24 58 -53z m371 -371 l53
-53 -39 -32 c-62 -52 -149 -88 -258 -106 -118 -20 -168 -40 -223 -90 -55 -49
-88 -121 -106 -232 -20 -118 -44 -181 -95 -247 -91 -118 -183 -166 -370 -196
-96 -16 -132 -32 -187 -82 -69 -64 -90 -108 -113 -237 -24 -139 -54 -202 -133
-287 -78 -83 -166 -127 -298 -149 -122 -20 -149 -29 -201 -67 l-42 -30 -56 56
-56 56 35 30 c62 53 147 88 266 109 126 22 178 44 234 102 54 56 76 108 95
224 23 135 60 212 144 296 83 82 146 112 291 139 131 23 186 48 241 108 52 56
67 93 90 221 23 133 62 214 139 291 79 79 157 116 300 141 107 19 187 50 205
79 12 19 31 9 84 -44z m469 -638 c50 -86 88 -159 85 -162 -4 -3 -32 -6 -63 -6
l-56 0 -12 -111 c-23 -206 -74 -376 -169 -561 -78 -154 -161 -266 -298 -404
-302 -303 -707 -472 -1137 -474 l-58 0 0 69 0 68 138 6 c213 9 393 56 585 152
151 76 255 152 382 279 246 246 395 563 424 898 l7 78 -63 0 c-35 0 -63 3 -63
6 0 3 24 46 54 97 29 51 72 125 96 165 23 41 46 70 50 65 4 -4 48 -78 98 -165z"/>
</g>
</svg>
