<?xml version="1.0" standalone="no"?>
<!DOCTYPE svg PUBLIC "-//W3C//DTD SVG 20010904//EN"
 "http://www.w3.org/TR/2001/REC-SVG-20010904/DTD/svg10.dtd">
<svg version="1.0" xmlns="http://www.w3.org/2000/svg"
 width="475.000000pt" height="474.000000pt" viewBox="0 0 475.000000 474.000000"
 preserveAspectRatio="xMidYMid meet">

<g transform="translate(0.000000,474.000000) scale(0.100000,-0.100000)"
fill="#000000" stroke="none">
<path d="M2180 4710 c-585 -55 -1093 -297 -1495 -711 -772 -796 -885 -2018
-271 -2939 389 -582 1016 -964 1708 -1039 125 -14 381 -14 506 0 695 75 1327
460 1714 1044 205 310 340 688 379 1064 17 162 7 463 -21 620 -89 509 -313
936 -678 1292 -374 367 -809 581 -1329 654 -132 19 -391 26 -513 15z m-349
-692 c82 -112 128 -240 136 -370 7 -121 -7 -198 -56 -303 -45 -95 -76 -138
-287 -395 -204 -248 -263 -328 -308 -418 -65 -129 -73 -194 -50 -397 l5 -50
-38 41 c-48 52 -117 188 -139 274 -21 84 -21 217 0 300 34 130 84 213 263 433
272 338 331 417 377 508 57 112 73 203 57 309 -19 127 -12 139 40 68z m710
-140 c63 -91 116 -212 140 -314 18 -81 21 -114 16 -227 -6 -146 -24 -223 -81
-344 -59 -122 -146 -240 -440 -593 -76 -91 -167 -203 -203 -250 -74 -97 -164
-275 -189 -370 -19 -74 -23 -228 -10 -342 8 -70 7 -78 -8 -78 -54 0 -196 249
-241 426 -24 91 -25 264 -2 357 46 187 105 281 438 697 290 363 352 446 394
531 79 156 100 273 84 469 -5 71 -7 135 -3 141 9 15 57 -32 105 -103z m535
-374 c223 -273 269 -645 117 -949 -51 -100 -70 -127 -328 -450 -407 -512 -428
-541 -481 -697 -39 -116 -47 -203 -34 -360 7 -77 10 -141 7 -144 -9 -10 -79
69 -128 143 -101 156 -144 318 -136 518 9 247 84 409 315 683 248 294 290 345
377 461 198 265 266 464 237 698 -15 124 -15 143 2 143 7 0 31 -21 52 -46z
m473 -754 c85 -129 123 -245 124 -380 0 -109 -15 -173 -68 -285 -46 -98 -85
-152 -300 -410 -203 -245 -244 -300 -286 -391 -51 -108 -65 -193 -53 -324 7
-82 6 -104 -4 -108 -15 -5 -25 8 -82 102 -66 109 -100 225 -100 338 0 116 17
187 74 303 44 89 117 186 372 493 135 163 167 210 215 321 62 144 68 198 43
359 -10 62 15 55 65 -18z"/>
</g>
</svg>
