<svg xmlns="http://www.w3.org/2000/svg" viewBox="0 0 807 807">
  <path fill="currentColor" fill-rule="evenodd" d="M449.5 10.634c-22.023 2.363-44.585 10.836-62.5 23.47-9.952 7.018-25.795 22.481-33.163 32.366-15.719 21.091-23.11 41.907-25.876 72.882-2.448 27.402 3.486 57.244 16.572 83.35 2.956 5.898 5.283 10.798 5.171 10.89s-2.454 1.299-5.204 2.682c-9.06 4.556-26.137 16.419-35.647 24.764-10.665 9.359-20.399 19.872-29.132 31.462-3.316 4.4-6.395 8.413-6.843 8.918-.464.523-4.486-2.606-9.346-7.272-22.417-21.521-47.282-31.868-79.032-32.887-22.113-.71-38.124 2.7-56.626 12.058-43.665 22.086-66.85 60.128-67.039 109.999-.12 31.488 10.082 56.965 31.993 79.899 10.472 10.962 18.664 16.919 32.672 23.76 18.036 8.807 30.032 11.891 49.59 12.748 23.557 1.032 47.669-5.032 69.052-17.366 4.377-2.524 8.083-4.425 8.236-4.223.152.201.878 1.941 1.614 3.866 3.401 8.906 11.785 24.513 18.707 34.824 16.087 23.963 35.463 42.347 61.488 58.34l10.3 6.33-4.493.818c-15.867 2.89-23.373 5.115-32.562 9.653-23.65 11.681-40.393 31.437-48.092 56.747-2.363 7.77-2.683 10.526-2.754 23.788-.089 16.639 1.393 25.308 6.554 38.334 11.743 29.636 38.174 48.543 72.86 52.119 10.587 1.091 24.628.04 34.496-2.583 10.349-2.751 25.31-10.671 33.504-17.735l7.5-6.467.645 8.834c.737 10.077 1.771 13.778 6.493 23.222 3.693 7.388 12.265 16.818 19.327 21.263 2.456 1.545 8.081 4.178 12.5 5.851 7.335 2.776 9.08 3.04 20.035 3.031 10.301-.009 13.144-.388 20.078-2.679 28.092-9.28 43.512-34.391 37.958-61.812-4.371-21.58-19.63-38.793-41.763-47.11-7.6-2.855-9.29-3.112-20.773-3.155-11.091-.042-13.332.253-19.878 2.614l-7.378 2.662.516-7.695c1.772-26.419-7.382-53.241-24.474-71.716l-5.531-5.978 22.123-.081c19.989-.074 23.375-.343 35.122-2.788 10.659-2.219 31.927-8.685 39.755-12.086 1.397-.607 2.081.026 3.349 3.096 3.299 7.993 12.482 20.334 19.569 26.3 17.683 14.885 45.114 23.066 67.927 20.26 40.712-5.008 73.23-36.103 78.103-74.686 2.797-22.146-5.736-44.764-24.059-63.771-9.527-9.883-19.165-16.419-30.909-20.961-4.254-1.645-7.847-3.094-7.983-3.218s.842-3.867 2.173-8.315c5.316-17.76 9.33-41.797 10.229-61.25 1.238-26.796-3.113-47.503-16.358-77.857-.326-.746 2.287.765 5.806 3.358 17.571 12.948 40.199 19.441 63.325 18.17 18.698-1.027 32.116-5.946 47.217-17.311 12.875-9.691 21.547-20.266 28.372-34.601 5.631-11.828 7.118-18.348 7.696-33.759.427-11.412.184-14.847-1.574-22.207-3.126-13.085-7.5-23.474-14.107-33.502-17.068-25.908-49.033-41.867-80.031-39.957-26.498 1.632-49.579 13.828-64.709 34.192l-2.21 2.974 2.006-6c6.016-17.994 8.066-50.555 4.472-71-6.995-39.787-28.053-71.341-62.559-93.739-16.186-10.507-32.119-17.041-51.5-21.118-11.753-2.473-32.091-3.965-41-3.009m-6.833 32.033c-.367.366-.667 1.666-.667 2.888 0 1.781.746 2.358 3.75 2.902 10.741 1.948 21.328 10.261 26.164 20.543 2.217 4.716 2.586 6.862 2.586 15.053 0 9.02-.209 9.974-3.745 17.128-5.799 11.733-14.801 18.685-27.669 21.368-23.671 4.936-45.683-12.451-46.848-37.004-.256-5.396.124-9.676 1.154-12.998.844-2.725 1.352-5.136 1.129-5.359-.765-.765-6.303 3.793-11.442 9.416-17.173 18.789-27.063 45.667-27.075 73.574-.011 26.201 7.339 50.508 20.686 68.412l2.303 3.09 8.254-1.793c13.421-2.915 29.954-4.211 45.728-3.585 27.349 1.086 50.176 7.01 77.611 20.142l13.086 6.264 8.574-7.356c9.371-8.04 20.773-22.272 25.588-31.941 3.734-7.498 7.662-19.614 9.373-28.911 1.728-9.389 1.679-40.157-.076-48-5.102-22.798-15.989-40.617-34.131-55.866-18.106-15.218-34.375-23.352-54.25-27.122-8.071-1.531-38.751-2.178-40.083-.845m223.857 159.589c-1.086 1.784-2.114 3.516-2.284 3.847-.17.332 2.445 1.608 5.81 2.835 15.809 5.764 22.535 22.178 15.493 37.809-3.092 6.865-9.35 13.394-15.353 16.018-2.372 1.037-6.549 1.618-11.69 1.627-6.704.011-8.81-.41-13-2.603-10.409-5.447-16.673-15.134-16.521-25.551.046-3.156.182-6.863.302-8.238.185-2.108-.252-2.544-2.781-2.779-3.311-.309-3.879.411-10.073 12.779-14.116 28.182 2.897 65.783 34.85 77.024 9.616 3.383 25.006 3.839 35.258 1.044 10.322-2.814 19.453-8.291 27.086-16.247 7.132-7.433 10.753-14.052 13.444-24.577 5.371-21-.633-43.33-15.729-58.501-7.453-7.489-16.277-12.378-28.316-15.687-10.956-3.011-14.068-2.785-16.496 1.2M578.5 239.729c-2.75 3.551-8.492 10.566-12.76 15.589l-7.76 9.134 12.711 12.74c6.991 7.006 12.812 12.638 12.935 12.515s-.427-2.92-1.223-6.215c-3.784-15.675-3.723-34.694.147-45.953.749-2.178 1.269-4.029 1.156-4.113-.113-.083-2.456 2.753-5.206 6.303M416 252.689c-17.845 1.879-39.246 8.264-55 16.41-12.007 6.209-14.515 8.117-13.645 10.385.523 1.362 1.371 1.6 3.907 1.098 7.213-1.428 19.571-1.759 24.843-.664 8.594 1.784 16.964 6.28 24.073 12.93C410.658 302.652 416 315.026 416 329.5c0 26.101-18.029 46.956-43.846 50.719-33.409 4.869-63.229-24.695-58.44-57.938.614-4.261.903-8.092.642-8.514s-1.707-.767-3.215-.767c-2.318 0-3.55 1.227-7.99 7.957-10.446 15.835-19.79 38.42-24.425 59.043-1.747 7.773-2.137 12.773-2.143 27.5-.008 18.771.832 25.886 5.078 43 10.725 43.224 40.221 80.329 79.477 99.981 12.951 6.483 31.782 12.726 45.362 15.038 13.744 2.34 35.528 2.183 50.5-.364 12.752-2.17 31.526-8.027 43.58-13.596 17.485-8.079 39.597-25.786 52.523-42.059 19.016-23.941 32.391-57.783 35.965-91 4.868-45.233-14.245-92.963-50.149-125.242-32.065-28.826-81.015-44.982-122.919-40.569m-257 43.846c-12.334 2.612-22.826 7.869-34.167 17.119-6.419 5.235-6.634 5.554-5.768 8.574 1.37 4.777 2.551 5.487 5.705 3.431 9.238-6.024 13.243-7.159 25.251-7.159 11.035 0 11.806.14 18.289 3.332 8.529 4.198 16.468 11.91 20.252 19.668 2.665 5.467 2.926 6.933 2.932 16.5.005 9.254-.304 11.153-2.604 16-7.612 16.04-25.371 25.284-42.509 22.126-18.23-3.359-30.085-15.835-31.174-32.809l-.484-7.528-3.706.592c-2.039.326-6.086 1.362-8.994 2.301-7.382 2.384-8.35 4.922-8.32 21.818.036 20.726 5.18 36.986 16.387 51.801 6.219 8.22 17.707 18.082 27.769 23.839 32.879 18.812 71.917 14.435 101.38-11.366l3.74-3.274-1.184-6.5c-.657-3.611-1.189-15.612-1.196-27-.016-24.178 1.971-37.253 8.891-58.5l4.234-13-3.029-4.5c-8.305-12.336-26.526-26.784-40.287-31.944-13.262-4.974-36.902-6.592-51.408-3.521m436 217.5c0 2.22-.694 5.094-1.541 6.388-1.395 2.128-1.388 2.505.071 3.964.887.887 2.153 1.613 2.814 1.613 2.311 0 8.495 6.037 10.566 10.315 8.483 17.524-8.561 40.901-27.777 38.096-8.729-1.274-15.747-5.986-20.526-13.781l-2.107-3.438-7.927 6.381c-4.36 3.51-8.348 6.802-8.861 7.315-1.549 1.549 4.286 10.981 10.877 17.581 17.468 17.493 47.554 21.097 67.83 8.126C631.457 588.255 639 574.292 639 558.5c0-20.734-14.261-39.906-34.7-46.649-8.46-2.791-9.3-2.594-9.3 2.184M337.5 618.692c-8.959 2.06-9.099 2.152-11.835 7.739-1.466 2.994-2.665 5.896-2.665 6.449 0 1.482 4.132 4.118 6.473 4.13 2.971.014 11.885 4.395 14.503 7.127 3.991 4.165 5.978 9.841 6.002 17.145.026 8.057-1.454 12.022-6.631 17.764-14.824 16.443-42.861 9.054-46.877-12.354-.849-4.525-1.58-5.054-4.895-3.544-2.527 1.151-2.575 1.368-2.575 11.586 0 17.267 5.729 30.779 18.191 42.905C319.085 729.213 330.504 734 346.216 734c17.41 0 31.111-5.515 43.785-17.624 12.279-11.73 17.381-23.521 17.255-39.876-.127-16.499-6.096-29.447-19.332-41.933-7.903-7.455-19.918-13.798-29.358-15.498-5.881-1.06-17.216-1.262-21.066-.377m121.172 95.677c-16.84 4.748-23.879 20.644-16.366 36.958 6.201 13.464 20.924 20.976 34.654 17.683 7.5-1.8 16.109-8.5 19.397-15.099 6.709-13.463.049-30.695-14.607-37.79-5.811-2.813-16.45-3.621-23.078-1.752"/>
</svg>
